<?xml version="1.0" standalone="no"?>
<!DOCTYPE svg PUBLIC "-//W3C//DTD SVG 20010904//EN"
 "http://www.w3.org/TR/2001/REC-SVG-20010904/DTD/svg10.dtd">
<svg version="1.0" xmlns="http://www.w3.org/2000/svg"
 width="1536.000000pt" height="1536.000000pt" viewBox="0 0 1536.000000 1536.000000"
 preserveAspectRatio="xMidYMid meet">
<metadata>
Created by potrace 1.11, written by Peter Selinger 2001-2013
</metadata>
<g transform="translate(0.000000,1536.000000) scale(0.100000,-0.100000)"
fill="#000000" stroke="none">
<path d="M3419 15356 c-2 -2 -51 -6 -109 -10 -58 -3 -116 -8 -130 -11 -14 -2
-52 -6 -85 -9 -33 -3 -70 -8 -82 -10 -11 -3 -43 -7 -70 -11 -175 -23 -440 -87
-643 -154 -869 -289 -1523 -855 -1915 -1656 -110 -226 -218 -530 -270 -765
-26 -113 -56 -273 -61 -322 -3 -35 -8 -66 -10 -69 -2 -3 -6 -34 -9 -70 -3 -35
-8 -73 -10 -85 -3 -11 -8 -70 -12 -130 -10 -140 -10 -8617 -1 -8744 5 -52 10
-111 12 -130 3 -19 7 -57 10 -85 7 -72 36 -252 51 -325 3 -14 8 -38 11 -55 26
-144 129 -483 199 -650 94 -229 232 -478 368 -670 39 -55 73 -102 76 -105 3
-3 33 -39 66 -80 69 -85 269 -290 365 -372 231 -198 516 -376 814 -508 256
-113 620 -221 891 -264 136 -22 175 -28 224 -32 31 -3 67 -7 80 -9 104 -17
730 -20 4506 -20 3785 0 4391 3 4495 19 14 3 54 7 90 11 61 6 214 29 270 40
14 3 41 8 60 11 19 3 43 7 52 10 9 3 25 6 35 8 56 12 203 52 303 83 63 20 120
37 125 39 6 1 67 24 136 52 292 117 536 252 769 425 52 39 100 76 106 81 6 6
35 31 65 56 56 47 248 236 309 305 341 385 604 903 736 1454 37 151 79 383 89
491 4 36 8 70 10 77 2 7 8 65 12 130 10 150 11 8625 0 8753 -4 52 -9 111 -11
130 -3 19 -7 58 -10 85 -6 61 -13 104 -32 220 -9 50 -18 104 -21 120 -12 75
-78 320 -122 454 -83 250 -182 469 -311 686 -60 101 -200 308 -219 325 -3 3
-33 39 -66 80 -69 85 -269 290 -365 372 -231 198 -516 376 -814 508 -256 113
-620 221 -891 264 -161 26 -194 30 -305 41 -36 3 -83 9 -105 12 -41 7 -8648
16 -8656 9z"/>
</g>
</svg>
