<?xml version="1.0" standalone="no"?>
<!DOCTYPE svg PUBLIC "-//W3C//DTD SVG 20010904//EN"
 "http://www.w3.org/TR/2001/REC-SVG-20010904/DTD/svg10.dtd">
<svg version="1.0" xmlns="http://www.w3.org/2000/svg"
 width="1536.000000pt" height="1536.000000pt" viewBox="0 0 1536.000000 1536.000000"
 preserveAspectRatio="xMidYMid meet">
<metadata>
Created by potrace 1.11, written by Peter Selinger 2001-2013
</metadata>
<g transform="translate(0.000000,1536.000000) scale(0.100000,-0.100000)"
fill="#000000" stroke="none">
<path d="M4870 12250 c-1548 -1040 -2815 -1894 -2815 -1900 0 -5 182 -132 406
-282 223 -150 406 -277 408 -282 2 -5 -181 -132 -406 -283 -224 -151 -408
-278 -408 -283 0 -5 182 -131 405 -281 223 -149 409 -275 413 -279 5 -4 -178
-133 -407 -286 -228 -154 -415 -281 -415 -284 0 -3 217 -150 482 -328 265
-178 671 -450 902 -606 1793 -1204 4248 -2851 4250 -2851 2 0 2457 1647 4250
2851 231 156 637 428 902 606 265 178 482 325 482 328 0 3 -187 130 -415 284
-229 153 -412 282 -407 286 4 4 190 130 413 279 223 150 405 276 405 281 0 5
-182 131 -405 280 -223 150 -408 275 -412 279 -5 4 179 132 407 286 228 153
415 282 415 285 0 5 -5458 3675 -5609 3772 l-27 17 -2814 -1889z m5524 -109
c1461 -981 2656 -1787 2656 -1791 0 -13 -691 -472 -704 -467 -7 3 -1057 706
-2332 1563 -1276 856 -2323 1557 -2329 1557 -5 0 -1053 -701 -2329 -1557
-1275 -857 -2325 -1560 -2332 -1563 -15 -6 -706 456 -702 469 2 5 1209 818
2683 1808 l2680 1799 26 -17 c14 -9 1222 -820 2683 -1801z m-439 -834 c1238
-831 2253 -1513 2257 -1516 4 -4 -152 -114 -348 -244 l-355 -238 -1907 1280
c-1049 705 -1910 1282 -1913 1283 -4 2 -866 -574 -1917 -1280 l-1911 -1283
-355 238 c-195 130 -354 239 -352 240 2 2 1022 687 2266 1523 1245 836 2268
1516 2274 1513 6 -4 1024 -686 2261 -1516z m-417 -847 c1361 -914 1837 -1238
1828 -1246 -6 -6 -263 -180 -571 -386 -308 -206 -1131 -759 -1830 -1228 -698
-469 -1274 -853 -1280 -853 -5 0 -581 384 -1280 853 -698 469 -1522 1022
-1830 1228 -308 206 -565 380 -571 386 -9 8 467 333 1830 1248 1012 680 1846
1236 1852 1235 7 -1 840 -558 1852 -1237z m-6164 -1005 c190 -126 344 -233
343 -237 -4 -14 -690 -469 -703 -466 -16 4 -703 461 -703 468 0 10 694 469
706 467 7 -1 168 -105 357 -232z m9340 0 c190 -126 345 -232 345 -235 0 -7
-687 -464 -703 -468 -13 -3 -699 452 -703 466 -3 10 689 472 703 469 7 -1 167
-105 358 -232z m-6924 -1623 c1037 -696 1889 -1265 1895 -1265 6 0 867 575
1914 1278 1047 703 1909 1278 1915 1278 21 0 708 -465 699 -473 -4 -4 -206
-140 -448 -302 -242 -162 -1257 -843 -2255 -1513 -997 -670 -1819 -1218 -1825
-1218 -6 0 -828 548 -1825 1218 -998 670 -2013 1351 -2255 1513 -242 162 -444
298 -449 302 -4 5 151 114 345 244 351 234 353 236 379 219 14 -9 873 -585
1910 -1281z m-2352 451 c227 -153 603 -405 835 -561 232 -156 1093 -734 1912
-1284 820 -550 1495 -1001 1500 -1001 6 0 681 451 1500 1001 820 550 1680
1128 1912 1284 232 156 608 408 835 561 226 152 417 277 422 277 12 0 706
-462 706 -470 0 -3 -377 -258 -838 -567 -460 -309 -1669 -1120 -2685 -1802
-1016 -683 -1850 -1241 -1852 -1241 -2 0 -836 558 -1852 1241 -1016 682 -2225
1493 -2685 1802 -461 309 -838 564 -838 567 0 8 693 470 705 470 6 0 197 -125
423 -277z"/>
</g>
</svg>
