<?xml version="1.0" standalone="no"?>
<!DOCTYPE svg PUBLIC "-//W3C//DTD SVG 20010904//EN"
 "http://www.w3.org/TR/2001/REC-SVG-20010904/DTD/svg10.dtd">
<svg version="1.0" xmlns="http://www.w3.org/2000/svg"
 width="800.000000pt" height="800.000000pt" viewBox="0 0 800.000000 800.000000"
 preserveAspectRatio="xMidYMid meet">
<metadata>
Created by potrace 1.11, written by Peter Selinger 2001-2013
</metadata>
<g transform="translate(0.000000,800.000000) scale(0.100000,-0.100000)"
fill="#000000" stroke="none">
<path d="M1719 7996 c-2 -2 -35 -7 -74 -11 -735 -72 -1292 -493 -1525 -1150
-34 -96 -76 -261 -86 -335 -3 -25 -8 -47 -9 -50 -2 -3 -7 -44 -12 -90 -10
-108 -11 -4623 0 -4710 7 -63 21 -153 33 -215 33 -182 119 -412 216 -578 83
-144 256 -349 375 -445 233 -187 579 -339 857 -376 27 -4 52 -9 56 -11 27 -16
461 -20 2450 -20 1970 0 2423 4 2450 20 3 1 25 6 50 9 25 3 90 17 145 30 758
185 1253 766 1342 1576 10 96 11 4623 0 4710 -7 63 -21 153 -33 215 -47 257
-166 528 -324 740 -281 375 -696 602 -1245 681 -51 7 -4658 17 -4666 10z"/>
</g>
</svg>
